<?xml version="1.0" standalone="no"?>
<!DOCTYPE svg PUBLIC "-//W3C//DTD SVG 20010904//EN"
 "http://www.w3.org/TR/2001/REC-SVG-20010904/DTD/svg10.dtd">
<svg version="1.0" xmlns="http://www.w3.org/2000/svg"
 width="512.000000pt" height="512.000000pt" viewBox="0 0 512.000000 512.000000"
 preserveAspectRatio="xMidYMid meet">

<g transform="translate(0.000000,512.000000) scale(0.100000,-0.100000)"
fill="#000000" stroke="none">
<path d="M3785 4638 c-82 -15 -172 -65 -233 -127 -50 -51 -85 -112 -328 -582
l-272 -524 -88 -7 c-49 -4 -127 -19 -174 -34 -170 -53 -267 -118 -415 -280
-282 -308 -463 -478 -620 -580 -186 -121 -446 -229 -657 -273 -117 -24 -142
-36 -195 -94 -65 -70 -81 -170 -43 -255 39 -85 299 -325 595 -547 426 -320
843 -556 1265 -716 103 -40 124 -44 200 -44 103 1 160 26 231 102 84 90 320
499 439 763 129 282 338 839 367 975 18 85 13 242 -11 330 -9 33 -34 95 -55
138 l-38 78 269 517 c148 284 278 544 290 577 16 48 19 79 16 155 -3 85 -8
104 -41 173 -64 136 -186 230 -331 256 -69 13 -101 12 -171 -1z m174 -288 c69
-35 108 -107 98 -181 -3 -24 -101 -223 -253 -516 -136 -263 -248 -479 -250
-481 -1 -2 -20 8 -41 21 -22 14 -95 53 -162 86 l-121 61 36 73 c128 253 459
885 473 901 48 55 151 72 220 36z m-874 -1252 c87 -29 295 -141 350 -190 101
-89 158 -217 158 -358 0 -72 -6 -101 -38 -195 -21 -60 -41 -114 -46 -119 -5
-6 -1083 548 -1108 570 -5 5 84 109 139 162 147 142 357 192 545 130z m-472
-714 c620 -326 792 -416 795 -419 7 -7 -127 -324 -208 -492 -136 -281 -333
-616 -369 -628 -18 -6 -111 26 -251 85 -41 17 -83 34 -92 37 -10 3 -18 7 -18
10 0 2 28 38 63 81 124 152 197 269 197 316 0 103 -119 170 -205 117 -17 -10
-65 -69 -107 -132 -42 -63 -106 -145 -142 -184 l-64 -70 -54 29 c-108 58 -398
244 -398 255 0 4 23 24 50 44 62 47 90 90 90 140 0 53 -27 94 -78 118 -58 29
-94 20 -178 -42 -38 -28 -85 -59 -104 -69 l-36 -18 -113 90 c-127 102 -344
298 -338 305 3 2 55 17 118 34 342 89 673 275 934 523 50 47 91 85 93 86 2 0
189 -97 415 -216z"/>
<path d="M1099 3467 c-160 -85 -134 -316 42 -368 68 -19 145 6 197 65 141 161
-50 403 -239 303z"/>
<path d="M587 2870 c-123 -37 -176 -196 -101 -302 95 -135 302 -102 349 55 46
154 -95 293 -248 247z"/>
</g>
</svg>
